#!OML:ASF E:\Steps\Project 1\Capture day 1\Session 2\Subject.ASF
:FULLY-SPECIFIED
:DEGREES
584
root 8.73297 18.3977 -1.61581 -155.417 2.135 179.236
lowerback -20.2405 -2.92941 -8.70011
upperback 1.52886 -1.36917 -1.35106
thorax 13.3955 -1.11229 3.01387
lowerneck -2.97311 -2.3083 -1.15035
upperneck 20.59 -2.43824 3.81991
head 6.81307 -0.443545 1.32179
rclavicle -8.34896e-015 5.56597e-015
rhumerus -41.834 -13.6334 -74.9705
rradius 38.0418
rwrist -6.50789
rhand -9.54337 -51.4245
rfingers 7.12502
rthumb 16.4233 -80.7493
lclavicle -8.34896e-015 5.56597e-015
lhumerus -26.8653 0.369113 80.1508
lradius 30.1187
lwrist -0.96381
lhand -20.689 -13.6747
lfingers 7.12502
lthumb 5.67464 16.2293
rfemur -62.3703 -2.65127 21.4007
rtibia 87.3886
rfoot -19.4921 -8.59549
rtoes -32.6849
lfemur -36.7221 -6.53582 -21.9671
ltibia 24.7128
lfoot -9.59603 1.6455
ltoes -24.9181
585
root 8.72096 18.4198 -1.67216 -155.846 2.32844 179.423
lowerback -19.9362 -2.85143 -8.53473
upperback 1.59454 -1.35885 -1.29461
thorax 13.2883 -1.10343 2.99187
lowerneck -2.98281 -2.34383 -1.23135
upperneck 20.6675 -2.48914 3.89454
head 6.84317 -0.464447 1.35693
rclavicle 1.98785e-015 -3.65764e-014
rhumerus -42.1876 -13.7667 -74.6817
rradius 37.7082
rwrist -6.3619
rhand -9.75028 -51.4198
rfingers 7.12502
rthumb 16.2241 -80.7609
lclavicle 1.98785e-015 -3.65764e-014
lhumerus -26.9672 0.169062 80.225
lradius 30.416
lwrist -0.655875
lhand -21.1175 -13.6501
lfingers 7.12502
lthumb 5.26088 16.2646
rfemur -63.1392 -2.30391 21.4841
rtibia 87.9029
rfoot -20.0347 -8.89749
rtoes -35.2545
lfemur -35.5535 -6.54463 -21.8612
ltibia 23.8714
lfoot -9.64429 1.95677
ltoes -24.9806
586
root 8.7191 18.4345 -1.69912 -155.712 2.09073 179.387
lowerback -19.7299 -3.02105 -8.59644
upperback 1.49819 -1.6047 -1.22483
thorax 13.0903 -1.21433 3.03534
lowerneck -2.94306 -2.28976 -1.10221
upperneck 20.7112 -2.39439 3.75213
head 6.84441 -0.417938 1.29637
rclavicle 9.14409e-015 3.49861e-014
rhumerus -42.2339 -14.1207 -74.4062
rradius 37.0009
rwrist -5.90963
rhand -9.86427 -51.3815
rfingers 7.12502
rthumb 16.1144 -80.7316
lclavicle 9.14409e-015 3.49861e-014
lhumerus -26.8934 -0.0340902 80.2381
lradius 30.6646
lwrist -0.260933
lhand -21.2576 -13.7079
lfingers 7.12502
lthumb 5.12562 16.2102
rfemur -64.5186 -2.38661 21.5419
rtibia 88.3068
rfoot -20.8624 -8.93733
rtoes -36.9596
lfemur -35.4836 -6.65388 -21.8645
ltibia 23.6579
lfoot -9.63435 1.86
ltoes -25.7705
587
root 8.7194 18.4466 -1.72605 -155.588 1.85178 179.432
lowerback -19.6484 -3.13658 -8.57226
upperback 1.48865 -1.78442 -1.16257
thorax 13.0551 -1.29805 3.03741
lowerneck -2.79028 -2.22014 -1.15346
upperneck 20.4522 -2.33581 3.91142
head 6.73453 -0.393573 1.35832
rclavicle -1.39149e-014 -3.81667e-014
rhumerus -42.3202 -14.5207 -74.1879
rradius 36.5581
rwrist -5.48879
rhand -9.84746 -51.5714
rfingers 7.12502
rthumb 16.1305 -80.9201
lclavicle -1.39149e-014 -3.81667e-014
lhumerus -26.6309 -0.190066 80.22
lradius 30.7634
lwrist -0.102359
lhand -21.1693 -13.8189
lfingers 7.12502
lthumb 5.21091 16.0971
rfemur -65.6608 -2.46643 21.6842
rtibia 88.366
rfoot -21.5932 -9.01107
rtoes -36.7367
lfemur -35.3899 -6.64586 -21.788
ltibia 23.3672
lfoot -9.48363 1.64927
ltoes -25.9976
588
root 8.71672 18.4595 -1.75793 -155.555 1.67587 179.551
lowerback -19.5851 -3.2145 -8.44662
upperback 1.47923 -1.94139 -1.08356
thorax 13.0235 -1.36637 3.00784
lowerneck -3.27809 -2.26032 -1.26226
upperneck 21.0235 -2.37457 3.96689
head 7.0087 -0.391026 1.39565
rclavicle -2.34566e-014 4.77083e-014
rhumerus -42.5871 -14.7205 -74.0102
rradius 36.3395
rwrist -5.23258
rhand -9.89742 -51.6339
rfingers 7.12502
rthumb 16.0824 -80.9865
lclavicle -2.34566e-014 4.77083e-014
lhumerus -26.5449 -0.282078 80.2299
lradius 30.9615
lwrist -0.0475253
lhand -21.0801 -13.5665
lfingers 7.12502
lthumb 5.29704 16.3473
rfemur -66.7757 -2.41721 21.8463
rtibia 88.4104
rfoot -21.9095 -9.41484
rtoes -35.9381
lfemur -35.0673 -6.58734 -21.6725
ltibia 22.8883
lfoot -9.3563 1.47632
ltoes -26.4282
589
root 8.71089 18.4711 -1.79392 -155.606 1.56655 179.639
lowerback -19.5034 -3.27831 -8.3164
upperback 1.51577 -2.07703 -1.03594
thorax 13.0305 -1.42602 2.94616
lowerneck -3.71239 -2.29354 -1.23864
upperneck 21.4303 -2.41401 3.93567
head 7.21912 -0.395147 1.38072
rclavicle 5.56597e-015 -2.3059e-014
rhumerus -42.675 -14.8316 -73.9154
rradius 35.913
rwrist -5.04015
rhand -9.98763 -51.4872
rfingers 7.12502
rthumb 15.9956 -80.8468
lclavicle 5.56597e-015 -2.3059e-014
lhumerus -26.3782 -0.231688 80.2124
lradius 31.1127
lwrist 0.0261922
lhand -21.1461 -13.4524
lfingers 7.12502
lthumb 5.2333 16.463
rfemur -67.9467 -2.34651 21.9081
rtibia 88.5817
rfoot -22.0796 -9.79932
rtoes -35.0248
lfemur -34.632 -6.5966 -21.6218
ltibia 22.4594
lfoot -9.41358 1.44097
ltoes -27.5768
